<mxfile host="app.diagrams.net" modified="2023-08-27T21:02:18.438Z" agent="Mozilla/5.0 (X11; Linux x86_64; rv:109.0) Gecko/20100101 Firefox/116.0" etag="L1vRrs6-jjHPbCX6VWLl" version="21.6.9">
  <diagram id="C5RBs43oDa-KdzZeNtuy" name="Page-1">
    <mxGraphModel dx="1195" dy="688" grid="1" gridSize="10" guides="1" tooltips="1" connect="1" arrows="1" fold="1" page="1" pageScale="1" pageWidth="827" pageHeight="1169" math="0" shadow="0">
      <root>
        <mxCell id="WIyWlLk6GJQsqaUBKTNV-0" />
        <mxCell id="WIyWlLk6GJQsqaUBKTNV-1" parent="WIyWlLk6GJQsqaUBKTNV-0" />
        <mxCell id="NeuPvkHjacjx3SQfrgQ6-4" value="Celular" style="swimlane;fontStyle=1;align=center;verticalAlign=top;childLayout=stackLayout;horizontal=1;startSize=26;horizontalStack=0;resizeParent=1;resizeParentMax=0;resizeLast=0;collapsible=1;marginBottom=0;whiteSpace=wrap;html=1;" vertex="1" parent="WIyWlLk6GJQsqaUBKTNV-1">
          <mxGeometry x="600" y="225" width="160" height="350" as="geometry" />
        </mxCell>
        <mxCell id="NeuPvkHjacjx3SQfrgQ6-5" value="&lt;div&gt;- tipoRede&lt;/div&gt;&lt;div&gt;+ saidaSom&lt;/div&gt;&lt;div&gt;+ inVoiceList[]&lt;/div&gt;&lt;div&gt;- numero&lt;/div&gt;&lt;div&gt;- sms&lt;/div&gt;&lt;div&gt;- chamadasRecentes´]&lt;/div&gt;&lt;div&gt;- chamadasPerdidas[]&lt;br&gt;&lt;/div&gt;&lt;div&gt;+ ListaContato[]&lt;/div&gt;&lt;div&gt;+ Contato[]&lt;/div&gt;&lt;div&gt;+ DiscadorTela&lt;/div&gt;&lt;div&gt;+ EmChamadaTela&lt;/div&gt;&lt;div&gt;+ CaixaPostalTela&lt;/div&gt;&lt;div&gt;+ SMSTela&lt;br&gt;&lt;/div&gt;" style="text;strokeColor=none;fillColor=none;align=left;verticalAlign=top;spacingLeft=4;spacingRight=4;overflow=hidden;rotatable=0;points=[[0,0.5],[1,0.5]];portConstraint=eastwest;whiteSpace=wrap;html=1;" vertex="1" parent="NeuPvkHjacjx3SQfrgQ6-4">
          <mxGeometry y="26" width="160" height="194" as="geometry" />
        </mxCell>
        <mxCell id="NeuPvkHjacjx3SQfrgQ6-6" value="" style="line;strokeWidth=1;fillColor=none;align=left;verticalAlign=middle;spacingTop=-1;spacingLeft=3;spacingRight=3;rotatable=0;labelPosition=right;points=[];portConstraint=eastwest;strokeColor=inherit;" vertex="1" parent="NeuPvkHjacjx3SQfrgQ6-4">
          <mxGeometry y="220" width="160" height="8" as="geometry" />
        </mxCell>
        <mxCell id="NeuPvkHjacjx3SQfrgQ6-7" value="&lt;div&gt;- receberLigacao()&lt;/div&gt;&lt;div&gt;+ buscarContato(Contato)&lt;/div&gt;&lt;div&gt;+ ligarContato(numero)&lt;/div&gt;&lt;div&gt;+ ligarCaixaPostal()&lt;/div&gt;&lt;div&gt;- ligarChamada(numero)&lt;/div&gt;&lt;div&gt;- desligarChamada()&lt;/div&gt;&lt;div&gt;- trocarSomVivaVoz()&lt;/div&gt;&lt;div&gt;- iniciarConferencia()&lt;br&gt;&lt;/div&gt;" style="text;strokeColor=none;fillColor=none;align=left;verticalAlign=top;spacingLeft=4;spacingRight=4;overflow=hidden;rotatable=0;points=[[0,0.5],[1,0.5]];portConstraint=eastwest;whiteSpace=wrap;html=1;" vertex="1" parent="NeuPvkHjacjx3SQfrgQ6-4">
          <mxGeometry y="228" width="160" height="122" as="geometry" />
        </mxCell>
        <mxCell id="NeuPvkHjacjx3SQfrgQ6-8" value="Navegador" style="swimlane;fontStyle=1;align=center;verticalAlign=top;childLayout=stackLayout;horizontal=1;startSize=26;horizontalStack=0;resizeParent=1;resizeParentMax=0;resizeLast=0;collapsible=1;marginBottom=0;whiteSpace=wrap;html=1;" vertex="1" parent="WIyWlLk6GJQsqaUBKTNV-1">
          <mxGeometry x="105" y="320" width="190" height="370" as="geometry" />
        </mxCell>
        <mxCell id="NeuPvkHjacjx3SQfrgQ6-9" value="&lt;div&gt;+ siteURL&lt;/div&gt;&lt;div&gt;+ siteHTML&lt;/div&gt;&lt;div&gt;- favoritosSite&lt;br&gt;&lt;/div&gt;&lt;div&gt;+ mailFolder&lt;/div&gt;&lt;div&gt;+ corpoTexto&lt;/div&gt;&lt;div&gt;+ listaEmail&lt;br&gt;&lt;/div&gt;&lt;div&gt;+ HTMLTela&lt;/div&gt;&lt;div&gt;+ EmailTela&lt;/div&gt;&lt;div&gt;+ EnviarEmailTela&lt;/div&gt;&lt;div&gt;+ MapaTela&lt;/div&gt;&lt;div&gt;+ WidgetTela&lt;br&gt;&lt;/div&gt;" style="text;strokeColor=none;fillColor=none;align=left;verticalAlign=top;spacingLeft=4;spacingRight=4;overflow=hidden;rotatable=0;points=[[0,0.5],[1,0.5]];portConstraint=eastwest;whiteSpace=wrap;html=1;" vertex="1" parent="NeuPvkHjacjx3SQfrgQ6-8">
          <mxGeometry y="26" width="190" height="164" as="geometry" />
        </mxCell>
        <mxCell id="NeuPvkHjacjx3SQfrgQ6-10" value="" style="line;strokeWidth=1;fillColor=none;align=left;verticalAlign=middle;spacingTop=-1;spacingLeft=3;spacingRight=3;rotatable=0;labelPosition=right;points=[];portConstraint=eastwest;strokeColor=inherit;" vertex="1" parent="NeuPvkHjacjx3SQfrgQ6-8">
          <mxGeometry y="190" width="190" height="8" as="geometry" />
        </mxCell>
        <mxCell id="NeuPvkHjacjx3SQfrgQ6-11" value="&lt;div&gt;+ irSite(siteURL)&lt;/div&gt;&lt;div&gt;- voltarPagina()&lt;/div&gt;&lt;div&gt;- avancarPagina()&lt;/div&gt;&lt;div&gt;- recarregarPagina()&lt;/div&gt;&lt;div&gt;- cancelarPagina()&lt;/div&gt;&lt;div&gt;- irPastaEmail(mailFolder)&lt;/div&gt;&lt;div&gt;- enviarEmail(corpoTexto, email)&lt;/div&gt;&lt;div&gt;- abrirEmail(email)&lt;/div&gt;&lt;div&gt;- abrirMapa(locGPS)&lt;/div&gt;&lt;div&gt;- ligarLugar(locGPS) : numero&lt;br&gt;&lt;/div&gt;&lt;div&gt;- abrirClima(locGPS)&lt;br&gt;&lt;/div&gt;" style="text;strokeColor=none;fillColor=none;align=left;verticalAlign=top;spacingLeft=4;spacingRight=4;overflow=hidden;rotatable=0;points=[[0,0.5],[1,0.5]];portConstraint=eastwest;whiteSpace=wrap;html=1;" vertex="1" parent="NeuPvkHjacjx3SQfrgQ6-8">
          <mxGeometry y="198" width="190" height="172" as="geometry" />
        </mxCell>
        <mxCell id="NeuPvkHjacjx3SQfrgQ6-23" value="iPhone" style="swimlane;fontStyle=1;align=center;verticalAlign=top;childLayout=stackLayout;horizontal=1;startSize=26;horizontalStack=0;resizeParent=1;resizeParentMax=0;resizeLast=0;collapsible=1;marginBottom=0;whiteSpace=wrap;html=1;" vertex="1" parent="WIyWlLk6GJQsqaUBKTNV-1">
          <mxGeometry x="360" y="150" width="160" height="500" as="geometry" />
        </mxCell>
        <mxCell id="NeuPvkHjacjx3SQfrgQ6-24" value="&lt;div&gt;+ orientacaoTela&lt;/div&gt;&lt;div&gt;+ posXY&lt;br&gt;&lt;/div&gt;&lt;div&gt;+ volume&lt;/div&gt;&lt;div&gt;+ estadoWifi&lt;/div&gt;&lt;div&gt;+ estadoBTh&lt;br&gt;&lt;/div&gt;&lt;div&gt;- appsAbertos[]&lt;/div&gt;&lt;div&gt;+ InicioTela&lt;/div&gt;&lt;div&gt;+ AppsAbertosTela[]&lt;/div&gt;" style="text;strokeColor=none;fillColor=none;align=left;verticalAlign=top;spacingLeft=4;spacingRight=4;overflow=hidden;rotatable=0;points=[[0,0.5],[1,0.5]];portConstraint=eastwest;whiteSpace=wrap;html=1;" vertex="1" parent="NeuPvkHjacjx3SQfrgQ6-23">
          <mxGeometry y="26" width="160" height="124" as="geometry" />
        </mxCell>
        <mxCell id="NeuPvkHjacjx3SQfrgQ6-25" value="" style="line;strokeWidth=1;fillColor=none;align=left;verticalAlign=middle;spacingTop=-1;spacingLeft=3;spacingRight=3;rotatable=0;labelPosition=right;points=[];portConstraint=eastwest;strokeColor=inherit;" vertex="1" parent="NeuPvkHjacjx3SQfrgQ6-23">
          <mxGeometry y="150" width="160" height="8" as="geometry" />
        </mxCell>
        <mxCell id="NeuPvkHjacjx3SQfrgQ6-26" value="&lt;div&gt;+ getOrientacaoTela()&lt;/div&gt;&lt;div&gt;- setOrientacaoTela()&lt;br&gt;&lt;/div&gt;&lt;div&gt;+aumentarVolume()&lt;/div&gt;&lt;div&gt;+ diminuirVolume()&lt;/div&gt;&lt;div&gt;- retornarToque() : posXY&lt;/div&gt;&lt;div&gt;- toqueDuplo()&lt;br&gt;&lt;/div&gt;&lt;div&gt;- irParaHome()&lt;/div&gt;&lt;div&gt;- bloquear()&lt;/div&gt;&lt;div&gt;- desbloquear()&lt;/div&gt;&lt;div&gt;+abrirApp(idApp)&lt;/div&gt;&lt;div&gt;- trocarApp()&lt;/div&gt;&lt;div&gt;- fecharApp()&lt;/div&gt;&lt;div&gt;+ enviarNotificacao()&lt;/div&gt;&lt;div&gt;- ligarWifi()&lt;/div&gt;&lt;div&gt;- desligarWifi()&lt;/div&gt;&lt;div&gt;- conectarSSID()&lt;/div&gt;&lt;div&gt;- desconectarSSID()&lt;br&gt;&lt;/div&gt;&lt;div&gt;-ligarBt()&lt;/div&gt;&lt;div&gt;- desligarBt()&lt;/div&gt;&lt;div&gt;- conectarBt()&lt;/div&gt;&lt;div&gt;- desconectarBt()&lt;br&gt;&lt;/div&gt;&lt;div&gt;- ligarAparelho()&lt;/div&gt;&lt;div&gt;- desligarAparelho()&lt;br&gt;&lt;/div&gt;" style="text;strokeColor=none;fillColor=none;align=left;verticalAlign=top;spacingLeft=4;spacingRight=4;overflow=hidden;rotatable=0;points=[[0,0.5],[1,0.5]];portConstraint=eastwest;whiteSpace=wrap;html=1;" vertex="1" parent="NeuPvkHjacjx3SQfrgQ6-23">
          <mxGeometry y="158" width="160" height="342" as="geometry" />
        </mxCell>
        <mxCell id="NeuPvkHjacjx3SQfrgQ6-27" value="Reprodutor Mídia" style="swimlane;fontStyle=1;align=center;verticalAlign=top;childLayout=stackLayout;horizontal=1;startSize=26;horizontalStack=0;resizeParent=1;resizeParentMax=0;resizeLast=0;collapsible=1;marginBottom=0;whiteSpace=wrap;html=1;" vertex="1" parent="WIyWlLk6GJQsqaUBKTNV-1">
          <mxGeometry x="120" y="80" width="160" height="230" as="geometry" />
        </mxCell>
        <mxCell id="NeuPvkHjacjx3SQfrgQ6-28" value="&lt;div&gt;+ BibliotecaMusicaTela&lt;br&gt;&lt;/div&gt;&lt;div&gt;+ AlbumTela&lt;/div&gt;&lt;div&gt;+ ListaReproducaoTela&lt;/div&gt;&lt;div&gt;+ MusicaPlayerTela&lt;/div&gt;&lt;div&gt;+ BibliotecaVideoTela&lt;/div&gt;&lt;div&gt;+ VideoPlayerTela&lt;/div&gt;" style="text;strokeColor=none;fillColor=none;align=left;verticalAlign=top;spacingLeft=4;spacingRight=4;overflow=hidden;rotatable=0;points=[[0,0.5],[1,0.5]];portConstraint=eastwest;whiteSpace=wrap;html=1;" vertex="1" parent="NeuPvkHjacjx3SQfrgQ6-27">
          <mxGeometry y="26" width="160" height="94" as="geometry" />
        </mxCell>
        <mxCell id="NeuPvkHjacjx3SQfrgQ6-29" value="" style="line;strokeWidth=1;fillColor=none;align=left;verticalAlign=middle;spacingTop=-1;spacingLeft=3;spacingRight=3;rotatable=0;labelPosition=right;points=[];portConstraint=eastwest;strokeColor=inherit;" vertex="1" parent="NeuPvkHjacjx3SQfrgQ6-27">
          <mxGeometry y="120" width="160" height="8" as="geometry" />
        </mxCell>
        <mxCell id="NeuPvkHjacjx3SQfrgQ6-30" value="&lt;div&gt;+ tooglePlayPause()&lt;/div&gt;&lt;div&gt;+ fowardMusic()&lt;/div&gt;&lt;div&gt;+ backwardMusic()&lt;/div&gt;&lt;div&gt;+ changeMusic()&lt;/div&gt;&lt;div&gt;+ changePlaylist()&lt;/div&gt;&lt;div&gt;+ changeVideo()&lt;/div&gt;" style="text;strokeColor=none;fillColor=none;align=left;verticalAlign=top;spacingLeft=4;spacingRight=4;overflow=hidden;rotatable=0;points=[[0,0.5],[1,0.5]];portConstraint=eastwest;whiteSpace=wrap;html=1;" vertex="1" parent="NeuPvkHjacjx3SQfrgQ6-27">
          <mxGeometry y="128" width="160" height="102" as="geometry" />
        </mxCell>
      </root>
    </mxGraphModel>
  </diagram>
</mxfile>
